<svg width="62px" height="90px" version="1.0" xmlns="http://www.w3.org/2000/svg"
    viewBox="0 0 512.000000 512.000000"
    preserveAspectRatio="xMidYMid meet">
    <g transform="translate(0.000000,512.000000) scale(0.100000,-0.100000)"
        fill="#fff" stroke="none">
        <path
            d="M1850 5109 c-30 -12 -1145 -1122 -1166 -1161 -11 -22 -14 -99 -14 -427 l0 -399 -183 -4 c-157 -3 -187 -6 -211 -21 -59 -39 -57 16 -54 -1220 3 -1062 4 -1134 21 -1158 29 -44 55 -49 247 -49 l180 0 0 -290 c0 -241 3 -296 15 -320 33 -64 -104 -60 1875 -60 1979 0 1842 -4 1875 60 12 24 15 79 15 320 l0 290 180 0 c192 0 218 5 247 49 17 24 18 96 21 1158 3 1236 5 1181 -54 1220 -24 15 -54 18 -211 21 l-183 4 0 954 c0 1048 3 996 -60 1029 -25 13 -180 15 -1272 14 -783 0 -1252 -4 -1268 -10z m2380 -1099 l0 -890 -1670 0 -1670 0 0 330 0 330 494 0 c271 0 508 3 525 6 18 4 45 20 62 36 l29 30 0 517 c0 285 3 521 7 524 3 4 505 7 1115 7 l1108 0 0 -890z m-2450 360 l0 -360 -362 0 -363 0 360 360 c198 198 361 360 362 360 2 0 3 -162 3 -360z m2890 -2480 l0 -1000 -2110 0 -2110 0 0 1000 0 1000 2110 0 2110 0 0 -1000z m-440 -1445 l0 -225 -1670 0 -1670 0 0 225 0 225 1670 0 1670 0 0 -225z" />
        <path
            d="M944 2651 c-42 -26 -60 -78 -44 -127 7 -21 24 -43 44 -55 29 -18 53 -19 324 -19 l293 0 -3 -428 -3 -427 -33 -67 c-59 -120 -166 -188 -297 -188 -163 0 -296 110 -325 270 -7 36 -14 76 -16 88 -6 31 -45 69 -78 78 -38 9 -75 -3 -109 -37 -29 -30 -30 -31 -25 -112 15 -228 178 -427 403 -493 85 -25 230 -22 316 5 180 57 331 219 374 402 22 95 22 1026 0 1069 -30 59 -39 60 -432 60 -335 0 -360 -1 -389 -19z" />
        <path
            d="M2297 2659 c-233 -56 -358 -328 -252 -546 52 -105 83 -127 441 -307 181 -90 339 -174 351 -185 58 -55 70 -155 25 -218 -42 -59 -65 -63 -330 -63 l-240 0 -30 29 c-19 20 -32 45 -36 73 -9 56 -30 86 -72 104 -60 25 -125 -7 -143 -71 -12 -43 2 -123 32 -181 34 -65 89 -117 162 -151 59 -27 64 -28 281 -31 128 -3 249 0 289 7 273 42 416 312 295 557 -50 102 -87 127 -432 300 -172 86 -328 167 -346 181 -43 32 -62 72 -62 128 0 57 19 96 67 132 l36 28 221 3 c142 2 234 0 258 -7 47 -14 74 -49 82 -106 15 -98 118 -141 184 -75 35 35 42 62 31 131 -17 107 -88 200 -189 248 -55 26 -57 26 -320 28 -146 1 -282 -3 -303 -8z" />
        <path
            d="M3398 2654 c-60 -32 -58 -9 -58 -764 0 -628 2 -695 17 -720 30 -51 95 -68 149 -40 51 28 54 45 54 359 l0 289 268 5 c286 4 315 9 406 62 55 32 137 118 165 173 89 175 57 383 -80 521 -60 60 -121 94 -206 116 -83 22 -675 21 -715 -1z m709 -231 c75 -40 123 -121 123 -204 0 -42 -39 -126 -71 -156 -57 -52 -86 -57 -351 -61 l-248 -4 0 227 0 226 253 -3 c238 -3 254 -4 294 -25z" />
    </g>
</svg>