<svg version="1.0" xmlns="http://www.w3.org/2000/svg" width="62px" height="90px"
    fill='#fff' viewBox="0 0 204.000000 192.000000" preserveAspectRatio="xMidYMid meet">
    <g transform="translate(0.000000,192.000000) scale(0.100000,-0.100000)" stroke="none">
        <path
            d="M1433 1623 c-26 -9 -53 -28 -70 -51 -40 -54 -65 -101 -58 -112 10 -16 -7 -60 -24 -60 -27 0 -114 -46 -149 -79 -18 -17 -36 -31 -40 -31 -17 0 -366 -340 -384 -373 -7 -13 -5 -25 7 -44 14 -21 23 -24 61 -21 24 2 44 2 44 1 0 -1 -28 -30 -62 -65 -35 -34 -62 -66 -61 -70 2 -4 -1 -7 -5 -5 -9 2 -82 -73 -82 -85 0 -5 -6 -8 -13 -8 -22 0 -166 -163 -180 -203 -4 -10 -2 -27 4 -39 14 -26 69 -49 90 -37 9 4 18 7 20 5 9 -9 69 -14 63 -5 -3 5 5 9 19 9 38 0 67 35 67 81 0 29 5 41 18 46 9 3 29 15 45 25 15 11 27 16 27 11 0 -4 4 -3 8 3 11 16 78 54 85 49 4 -3 5 -2 3 1 -3 3 16 17 42 31 26 14 49 28 52 32 3 4 23 20 45 36 22 16 50 39 63 52 13 13 28 20 34 17 6 -4 8 -3 5 3 -4 6 10 23 31 39 20 15 40 33 44 38 3 6 26 32 50 57 64 69 117 129 116 132 -2 2 17 26 47 61 6 6 11 18 13 26 2 8 10 22 18 31 8 8 14 25 14 37 0 11 4 23 10 27 5 3 6 13 3 22 -8 21 23 43 62 43 35 0 97 29 131 61 23 21 54 97 54 130 0 22 -31 91 -45 101 -5 4 -6 8 -1 8 16 0 -48 51 -89 71 -47 22 -75 23 -132 2z m107 -33 c72 -20 71 -23 -10 -105 l-75 -77 58 -52 c31 -28 57 -55 57 -58 0 -12 -67 -20 -100 -13 -47 10 -108 70 -120 117 -19 67 26 154 95 184 37 16 50 17 95 4z m104 -90 c20 -51 20 -75 -3 -125 -33 -73 -44 -75 -101 -14 l-50 53 58 62 c31 34 62 62 68 63 7 0 19 -17 28 -39z m-306 -154 l24 -13 -30 -12 c-16 -7 -113 -97 -216 -200 l-186 -188 -41 41 -42 41 99 93 c131 123 218 194 278 226 54 29 80 32 114 12z m66 -58 c9 -12 16 -28 16 -35 0 -6 -71 -74 -157 -150 -87 -76 -182 -160 -211 -187 l-53 -50 -26 27 -27 26 198 196 c208 205 229 218 260 173z m26 -82 c0 -2 -26 -46 -57 -97 -40 -66 -92 -129 -173 -213 l-116 -118 -37 37 -38 38 33 27 c18 16 110 96 203 178 152 135 185 161 185 148z m-525 -284 c-2 -2 -30 -10 -62 -17 -32 -7 -70 -16 -85 -20 -42 -11 -35 7 25 64 l52 50 37 -36 c21 -20 36 -39 33 -41z m49 -41 c20 -22 16 -26 -44 -36 l-45 -7 29 31 c35 36 38 37 60 12z m79 -79 l37 -38 -83 -61 c-91 -68 -187 -128 -275 -173 -95 -48 -95 -48 -78 -97 23 -64 2 -64 -62 1 l-57 56 160 160 c88 88 169 162 180 165 11 2 40 8 65 13 70 15 74 14 113 -26z m-489 -371 c21 -21 34 -41 29 -44 -10 -6 -47 -10 -96 -8 l-38 1 18 33 c24 43 34 57 42 57 4 0 24 -17 45 -39z" />
        <path d="M1597 1428 c-5 -37 -3 -43 12 -33 13 8 15 65 2 65 -5 0 -11 -15 -14 -32z" />
    </g>
</svg>